<svg width="700" height="420" viewBox="0 0 700 420" fill="none" xmlns="http://www.w3.org/2000/svg">
<path d="M52 47.9669C52 39.4373 49.1568 33.7509 43.4704 30.9077C34.9408 28.0645 30.676 30.9077 30.676 39.4373C30.676 47.9669 37.784 57.2073 52 67.1585C66.216 57.2073 73.324 47.9669 73.324 39.4373C73.324 30.9077 69.0592 28.0645 60.5296 30.9077C54.8432 33.7509 52 39.4373 52 47.9669Z" fill="#E05070" stroke="#C03050" stroke-width="2.6655"/>
<path d="M272 47.9669C272 39.4373 269.157 33.7509 263.47 30.9077C254.941 28.0645 250.676 30.9077 250.676 39.4373C250.676 47.9669 257.784 57.2073 272 67.1585C286.216 57.2073 293.324 47.9669 293.324 39.4373C293.324 30.9077 289.059 28.0645 280.53 30.9077C274.843 33.7509 272 39.4373 272 47.9669Z" fill="#E05070" stroke="#C03050" stroke-width="2.6655"/>
<path d="M190 28.0413C190 20.8927 187.498 15.8886 182.494 13.0291C175.345 10.1697 171.771 12.3143 171.771 19.4629C171.771 26.6116 177.847 34.4751 190 43.0535C202.153 34.4751 208.229 26.6116 208.229 19.4629C208.229 12.3143 204.655 10.1697 197.506 13.0291C192.502 15.8886 190 20.8927 190 28.0413Z" fill="#E87090" stroke="#C03050" stroke-width="2.1446"/>
<path d="M400 268.041C400 260.893 397.498 255.889 392.494 253.029C385.345 250.17 381.771 252.314 381.771 259.463C381.771 266.612 387.847 274.475 400 283.054C412.153 274.475 418.229 266.612 418.229 259.463C418.229 252.314 414.655 250.17 407.506 253.029C402.502 255.889 400 260.893 400 268.041Z" fill="#E87090" stroke="#C03050" stroke-width="2.1446"/>
<path d="M580 54.9449C580 46.0625 577.039 40.1409 571.118 37.1801C562.235 34.2193 557.794 37.1801 557.794 46.0625C557.794 54.9449 565.196 64.5675 580 74.9303C594.804 64.5675 602.206 54.9449 602.206 46.0625C602.206 37.1801 597.765 34.2193 588.882 37.1801C582.961 40.1409 580 46.0625 580 54.9449Z" fill="#E05070" stroke="#C03050" stroke-width="2.77575"/>
<path d="M400 114.945C400 106.062 397.039 100.141 391.118 97.1801C382.235 94.2193 377.794 97.1801 377.794 106.062C377.794 114.945 385.196 124.567 400 134.93C414.804 124.567 422.206 114.945 422.206 106.062C422.206 97.1801 417.765 94.2193 408.882 97.1801C402.961 100.141 400 106.062 400 114.945Z" fill="#E05070" stroke="#C03050" stroke-width="2.77575"/>
<path d="M655 30.0021C655 24.6416 653.325 20.9562 649.975 18.946C644.614 16.9358 641.934 18.611 641.934 23.9715C641.934 29.332 646.289 35.0276 655 41.0582C663.711 35.0276 668.066 29.332 668.066 23.9715C668.066 18.611 665.386 16.9358 660.026 18.946C656.675 20.9562 655 24.6416 655 30.0021Z" fill="#E87090" stroke="#C03050" stroke-width="2.0102"/>
<path d="M585 180.002C585 174.642 583.325 170.956 579.975 168.946C574.614 166.936 571.934 168.611 571.934 173.972C571.934 179.332 576.289 185.028 585 191.058C593.711 185.028 598.066 179.332 598.066 173.972C598.066 168.611 595.386 166.936 590.026 168.946C586.675 170.956 585 174.642 585 180.002Z" fill="#E87090" stroke="#C03050" stroke-width="2.0102"/>
<path d="M475 50.0021C475 44.6416 473.325 40.9562 469.975 38.946C464.614 36.9358 461.934 38.611 461.934 43.9715C461.934 49.332 466.289 55.0276 475 61.0582C483.711 55.0276 488.066 49.332 488.066 43.9715C488.066 38.611 485.386 36.9358 480.026 38.946C476.675 40.9562 475 44.6416 475 50.0021Z" fill="#E87090" stroke="#C03050" stroke-width="2.0102"/>
<path d="M38 174.931C38 165.822 34.9638 159.749 28.8912 156.713C19.7824 153.677 15.228 156.713 15.228 165.822C15.228 174.931 22.8187 184.799 38 195.425C53.1814 184.799 60.772 174.931 60.772 165.822C60.772 156.713 56.2176 153.677 47.1088 156.713C41.0363 159.749 38 165.822 38 174.931Z" fill="#E05070" stroke="#C03050" stroke-width="2.8465"/>
<path d="M168 214.931C168 205.822 164.964 199.749 158.891 196.713C149.782 193.677 145.228 196.713 145.228 205.822C145.228 214.931 152.819 224.799 168 235.425C183.181 224.799 190.772 214.931 190.772 205.822C190.772 196.713 186.218 193.677 177.109 196.713C171.036 199.749 168 205.822 168 214.931Z" fill="#E05070" stroke="#C03050" stroke-width="2.8465"/>
<path d="M662 187.87C662 177.759 658.75 171.258 652.249 168.369C642.138 165.48 637.082 169.091 637.082 179.203C637.082 189.315 645.388 200.149 662 211.705C678.612 200.149 686.918 189.315 686.918 179.203C686.918 169.091 681.862 165.48 671.751 168.369C665.25 171.258 662 177.759 662 187.87Z" fill="#E05070" stroke="#C03050" stroke-width="2.7085"/>
<path d="M532 127.87C532 117.759 528.75 111.258 522.249 108.369C512.138 105.48 507.082 109.091 507.082 119.203C507.082 129.315 515.388 140.149 532 151.705C548.612 140.149 556.918 129.315 556.918 119.203C556.918 109.091 551.862 105.48 541.751 108.369C535.25 111.258 532 117.759 532 127.87Z" fill="#E05070" stroke="#C03050" stroke-width="2.7085"/>
<path d="M482 207.87C482 197.759 478.75 191.258 472.249 188.369C462.138 185.48 457.082 189.091 457.082 199.203C457.082 209.315 465.388 220.149 482 231.705C498.612 220.149 506.918 209.315 506.918 199.203C506.918 189.091 501.862 185.48 491.751 188.369C485.25 191.258 482 197.759 482 207.87Z" fill="#E05070" stroke="#C03050" stroke-width="2.7085"/>
<path d="M55 285.001C55 278.327 52.6641 273.655 47.9923 270.985C41.3183 268.316 37.9813 270.318 37.9813 276.992C37.9813 283.666 43.6542 291.007 55 299.016C66.3458 291.007 72.0187 283.666 72.0187 276.992C72.0187 270.318 68.6817 268.316 62.0077 270.985C57.3359 273.655 55 278.327 55 285.001Z" fill="#E87090" stroke="#C03050" stroke-width="2.0022"/>
<path d="M275 285.001C275 278.327 272.664 273.655 267.992 270.985C261.318 268.316 257.981 270.318 257.981 276.992C257.981 283.666 263.654 291.007 275 299.016C286.346 291.007 292.019 283.666 292.019 276.992C292.019 270.318 288.682 268.316 282.008 270.985C277.336 273.655 275 278.327 275 285.001Z" fill="#E87090" stroke="#C03050" stroke-width="2.0022"/>
<path d="M648 295.055C648 287.741 645.44 282.622 640.32 279.696C633.006 276.77 629.349 278.965 629.349 286.279C629.349 293.593 635.566 301.638 648 310.415C660.434 301.638 666.651 293.593 666.651 286.279C666.651 278.965 662.994 276.77 655.68 279.696C650.56 282.622 648 287.741 648 295.055Z" fill="#E87090" stroke="#C03050" stroke-width="2.1942"/>
<path d="M538 265.055C538 257.741 535.44 252.622 530.32 249.696C523.006 246.77 519.349 248.965 519.349 256.279C519.349 263.593 525.566 271.638 538 280.415C550.434 271.638 556.651 263.593 556.651 256.279C556.651 248.965 552.994 246.77 545.68 249.696C540.56 252.622 538 257.741 538 265.055Z" fill="#E87090" stroke="#C03050" stroke-width="2.1942"/>
<path d="M468 315.055C468 307.741 465.44 302.622 460.32 299.696C453.006 296.77 449.349 298.965 449.349 306.279C449.349 313.593 455.566 321.638 468 330.415C480.434 321.638 486.651 313.593 486.651 306.279C486.651 298.965 482.994 296.77 475.68 299.696C470.56 302.622 468 307.741 468 315.055Z" fill="#E87090" stroke="#C03050" stroke-width="2.1942"/>
<path d="M80 371.927C80 362.753 76.9421 356.637 70.8264 353.579C61.6528 350.522 57.066 353.579 57.066 362.753C57.066 371.927 64.7106 381.865 80 392.567C95.2893 381.865 102.934 371.927 102.934 362.753C102.934 353.579 98.3472 350.522 89.1736 353.579C83.0578 356.637 80 362.753 80 371.927Z" fill="#E05070" stroke="#C03050" stroke-width="2.86675"/>
<path d="M300 371.927C300 362.753 296.942 356.637 290.826 353.579C281.653 350.522 277.066 353.579 277.066 362.753C277.066 371.927 284.711 381.865 300 392.567C315.289 381.865 322.934 371.927 322.934 362.753C322.934 353.579 318.347 350.522 309.174 353.579C303.058 356.637 300 362.753 300 371.927Z" fill="#E05070" stroke="#C03050" stroke-width="2.86675"/>
<path d="M200 358.096C200 351.021 197.877 346.068 193.632 343.238C186.557 340.408 183.019 342.531 183.019 349.606C183.019 356.681 188.679 363.757 200 370.832C211.32 363.757 216.981 356.681 216.981 349.606C216.981 342.531 213.443 340.408 206.368 343.238C202.123 346.068 200 351.021 200 358.096Z" fill="#E87090" stroke="#C03050" stroke-width="2.1226"/>
<path d="M350 208.096C350 201.021 347.877 196.068 343.632 193.238C336.557 190.408 333.019 192.531 333.019 199.606C333.019 206.681 338.679 213.757 350 220.832C361.32 213.757 366.981 206.681 366.981 199.606C366.981 192.531 363.443 190.408 356.368 193.238C352.123 196.068 350 201.021 350 208.096Z" fill="#E87090" stroke="#C03050" stroke-width="2.1226"/>
<path d="M610 375C610 367 607.333 361.667 602 359C594 356.333 590 359 590 367C590 375 596.667 383.667 610 393C623.333 383.667 630 375 630 367C630 359 626 356.333 618 359C612.667 361.667 610 367 610 375Z" fill="#E05070" stroke="#C03050" stroke-width="2.5"/>
<path d="M530 355C530 347 527.333 341.667 522 339C514 336.333 510 339 510 347C510 355 516.667 363.667 530 373C543.333 363.667 550 355 550 347C550 339 546 336.333 538 339C532.667 341.667 530 347 530 355Z" fill="#E05070" stroke="#C03050" stroke-width="2.5"/>
<path d="M430 395C430 387 427.333 381.667 422 379C414 376.333 410 379 410 387C410 395 416.667 403.667 430 413C443.333 403.667 450 395 450 387C450 379 446 376.333 438 379C432.667 381.667 430 387 430 395Z" fill="#E05070" stroke="#C03050" stroke-width="2.5"/>
<path d="M118 98.0469C118 93.1497 116.251 89.6517 112.753 87.5529C107.856 85.4541 105.407 86.8533 105.407 91.7505C105.407 96.6477 109.605 101.895 118 107.492C126.395 101.895 130.593 96.6477 130.593 91.7505C130.593 86.8533 128.144 85.4541 123.247 87.5529C119.749 89.6517 118 93.1497 118 98.0469Z" fill="#E05070" stroke="#C03050" stroke-width="1.88892"/>
<path d="M288 128.047C288 123.15 286.251 119.652 282.753 117.553C277.856 115.454 275.407 116.853 275.407 121.751C275.407 126.648 279.605 131.895 288 137.492C296.395 131.895 300.593 126.648 300.593 121.751C300.593 116.853 298.144 115.454 293.247 117.553C289.749 119.652 288 123.15 288 128.047Z" fill="#E05070" stroke="#C03050" stroke-width="1.88892"/>
</svg>
