<svg width="100%" viewBox="0 0 650 368" xmlns="http://www.w3.org/2000/svg">
    <defs>
      <pattern id="gf" x="0" y="0" width="40" height="40" patternUnits="userSpaceOnUse">
        <path d="M40 0L0 0 0 40" fill="none" stroke="#7DB9D8" stroke-width="0.4" opacity="0.18"></path>
      </pattern>
      <clipPath id="fc"><rect x="0" y="0" width="650" height="368" rx="14"></rect></clipPath>
    </defs>
    <rect width="650" height="368" rx="14" fill="#1A1A2E"></rect>
    <rect width="650" height="368" rx="14" fill="url(#gf)" clip-path="url(#fc)"></rect>
    <rect width="6" height="368" fill="#F26419"></rect>
    <polygon points="590,0 630,22 630,68 590,90 550,68 550,22" fill="none" stroke="#7DB9D8" stroke-width="1.5" opacity="0.3"></polygon>
    <polygon points="590,14 618,30 618,60 590,76 562,60 562,30" fill="none" stroke="#F26419" stroke-width="0.8" opacity="0.25"></polygon>
    <circle cx="590" cy="45" r="8" fill="#F26419" opacity="0.5"></circle>
    <g opacity="0.28">
      <line x1="550" y1="310" x2="550" y2="368" stroke="#7DB9D8" stroke-width="1"></line>
      <line x1="550" y1="338" x2="610" y2="338" stroke="#7DB9D8" stroke-width="1"></line>
      <circle cx="550" cy="338" r="3.5" fill="#F26419"></circle>
      <circle cx="610" cy="338" r="2.5" fill="#7DB9D8"></circle>
    </g>
    <g transform="translate(44,110)">
      <polygon points="26,3 48,15 48,37 26,49 4,37 4,15" stroke="#F26419" stroke-width="2" fill="none"></polygon>
      <polygon points="26,11 40,19 40,33 26,41 12,33 12,19" fill="#7DB9D8" fill-opacity="0.25"></polygon>
      <circle cx="26" cy="26" r="6" fill="#F26419"></circle>
    </g>
    <text x="84" y="124" font-family="'Syne','Arial Black',sans-serif" font-size="26" font-weight="800" letter-spacing="-0.5" fill="#F5F0E8">Scot Walton</text>
    <text x="84" y="148" font-family="'DM Mono','Courier New',monospace" font-size="11" letter-spacing="2" fill="#7DB9D8">FULL STACK DEVELOPER</text>
    <line x1="44" y1="166" x2="340" y2="166" stroke="#3D3D5C" stroke-width="1"></line>
    <g transform="translate(44,182)">
      <path d="M0,2L10,2 10,10 0,10Z" fill="none" stroke="#F26419" stroke-width="1.2"></path>
      <polyline points="0,2 5,7 10,2" fill="none" stroke="#F26419" stroke-width="1.2"></polyline>
      <text x="16" y="10" font-family="'DM Mono','Courier New',monospace" font-size="11" fill="#EDE6D8">contact@techgeek.support</text>
    </g>
    <g transform="translate(44,202)">
      <circle cx="5" cy="5" r="5" fill="none" stroke="#F26419" stroke-width="1.2"></circle>
      <ellipse cx="5" cy="5" rx="2.5" ry="5" fill="none" stroke="#F26419" stroke-width="1"></ellipse>
      <line x1="0" y1="5" x2="10" y2="5" stroke="#F26419" stroke-width="1"></line>
      <text x="16" y="10" font-family="'DM Mono','Courier New',monospace" font-size="11" fill="#EDE6D8">techgeek.support</text>
    </g>
    <g transform="translate(44,222)">
      <path d="M8.5,0C6.3,0 4.5,1.8 4.5,4c0,.8.2,1.5.6,2.1L0,11l1,1 4.9-4.6C6.5,7.8 7.5,8 8.5,8 10.7,8 12.5,6.2 12.5,4S10.7,0 8.5,0zm0,1.5c1.4,0 2.5,1.1 2.5,2.5S9.9,6.5 8.5,6.5 6,5.4 6,4s1.1-2.5 2.5-2.5z" fill="#F26419"></path>
      <text x="16" y="10" font-family="'DM Mono','Courier New',monospace" font-size="11" fill="#EDE6D8" letter-spacing="-0.5">816-892-0264</text>
    </g>
    <g transform="translate(44,242)">
      <path d="M5,0C2.24,0 0,2.24 0,5c0,2.21 1.43,4.09 3.42,4.74.25.05.33-.11.33-.24l-.01-.93c-1.38.3-1.67-.58-1.67-.58-.23-.57-.56-.73-.56-.73-.46-.31.02-.3.02-.3.5.03.76.51.76.51.45.76 1.19.54 1.47.41.05-.32.18-.54.32-.66C2.97,7.06 1.79,6.63 1.79,4.72c0-.54.2-.98.52-1.33-.05-.12-.23-.62.05-1.29 0,0 .41-.13 1.39.5C4.16,2.49 4.58,2.44 5,2.44s.84.05 1.25.16c.98-.63 1.39-.5 1.39-.5.28.67.1,1.17.05,1.29.32.35.52.79.52,1.33 0,1.92-1.18,2.34-2.31,2.45.18.15.35.45.35.91l-.01,1.42c0,.13.08.3.34.24C8.57,9.09 10,7.21 10,5 10,2.24 7.76,0 5,0Z" fill="#F26419"></path>
      <text x="16" y="10" font-family="'DM Mono','Courier New',monospace" font-size="11" fill="#EDE6D8">github.com/z4nta0</text>
    </g>
    <g transform="translate(44,262)">
      <rect x="0" y="0" width="10" height="10" rx="2" fill="none" stroke="#F26419" stroke-width="1.2"></rect>
      <circle cx="3" cy="3.5" r="1" fill="#F26419"></circle>
      <line x1="3" y1="5" x2="3" y2="8.5" stroke="#F26419" stroke-width="1.2"></line>
      <line x1="5.5" y1="5" x2="5.5" y2="8.5" stroke="#F26419" stroke-width="1.2"></line>
      <path d="M5.5,6.2C5.5,5.5 6,5 6.8,5c.8,0 1.2.5 1.2,1.5v2" fill="none" stroke="#F26419" stroke-width="1.2"></path>
      <text x="16" y="10" font-family="'DM Mono','Courier New',monospace" font-size="11" fill="#EDE6D8">linkedin.com/in/gary-s-walton-654739400</text>
    </g>
    <text x="44" y="342" font-family="'Syne','Arial Black',sans-serif" font-size="13" font-weight="800" letter-spacing="-0.3" fill="#3D3D5C">TechGeek</text>
    <text x="120" y="342" font-family="'Syne','Arial Black',sans-serif" font-size="13" font-weight="800" letter-spacing="-0.3" fill="#F26419">.support</text>
    <rect x="0.75" y="0.75" width="648.5" height="366.5" rx="13.5" fill="none" stroke="#3D3D5C" stroke-width="1.5"></rect>
  </svg>