<svg viewBox="0 0 700 420" xmlns="http://www.w3.org/2000/svg" style="position: absolute; inset: 0px; width: 100%; height: 100%; z-index: 1; pointer-events: none;"><path d="M52 48 Q52 36 44 32 Q32 28 32 40 Q32 52 52 66 Q72 52 72 40 Q72 28 60 32 Q52 36 52 48Z" fill="#e05070" stroke="#c03050" stroke-width="2.5" opacity="0" style="translate: none; rotate: none; scale: none; opacity: 1; transform-origin: 0px 0px 0px;" data-svg-origin="52 48.5" transform="matrix(1.0662,0,0,1.0662,-3.4424,-3.2107)"></path><path d="M190 28 Q190 18 183 14 Q173 10 173 20 Q173 30 190 42 Q207 30 207 20 Q207 10 197 14 Q190 18 190 28Z" fill="#e87090" stroke="#c03050" stroke-width="2" opacity="0" style="translate: none; rotate: none; scale: none; opacity: 1; transform-origin: 0px 0px 0px;" data-svg-origin="190 27.42857074737549" transform="matrix(1.0723,0,0,1.0723,-13.737,-1.98309)"></path><path d="M580 55 Q580 43 572 39 Q560 35 560 47 Q560 59 580 73 Q600 59 600 47 Q600 35 588 39 Q580 43 580 55Z" fill="#e05070" stroke="#c03050" stroke-width="2.5" opacity="0" style="translate: none; rotate: none; scale: none; opacity: 1; transform-origin: 0px 0px 0px;" data-svg-origin="580 55.5" transform="matrix(1.1103,0,0,1.1103,-63.974,-6.12165)"></path><path d="M655 30 Q655 22 650 19 Q642 16 642 24 Q642 32 655 41 Q668 32 668 24 Q668 16 660 19 Q655 22 655 30Z" fill="#e87090" stroke="#c03050" stroke-width="2" opacity="0" style="translate: none; rotate: none; scale: none; opacity: 1; transform-origin: 0px 0px 0px;" data-svg-origin="655 29.590909004211426" transform="matrix(1.0051,0,0,1.0051,-3.3405,-0.15091)"></path><path d="M38 175 Q38 163 30 159 Q18 155 18 167 Q18 179 38 193 Q58 179 58 167 Q58 155 46 159 Q38 163 38 175Z" fill="#e05070" stroke="#c03050" stroke-width="2.5" opacity="0" style="translate: none; rotate: none; scale: none; opacity: 1; transform-origin: 0px 0px 0px;" data-svg-origin="38 175.5" transform="matrix(1.1386,0,0,1.1386,-5.2668,-24.3243)"></path><path d="M662 188 Q662 174 653 170 Q639 166 639 180 Q639 194 662 210 Q685 194 685 180 Q685 166 671 170 Q662 174 662 188Z" fill="#e05070" stroke="#c03050" stroke-width="2.5" opacity="0" style="translate: none; rotate: none; scale: none; opacity: 1; transform-origin: 0px 0px 0px;" data-svg-origin="662 189.55555725097656" transform="matrix(1.0834,0,0,1.0834,-55.2108,-15.80893)"></path><path d="M55 285 Q55 275 48 271 Q38 267 38 277 Q38 287 55 299 Q72 287 72 277 Q72 267 62 271 Q55 275 55 285Z" fill="#e87090" stroke="#c03050" stroke-width="2" opacity="0" style="translate: none; rotate: none; scale: none; opacity: 1; transform-origin: 0px 0px 0px;" data-svg-origin="55 284.42857360839844" transform="matrix(1.0011,0,0,1.0011,-0.0605,-0.31287)"></path><path d="M648 295 Q648 285 641 281 Q631 277 631 287 Q631 297 648 309 Q665 297 665 287 Q665 277 655 281 Q648 285 648 295Z" fill="#e87090" stroke="#c03050" stroke-width="2" opacity="0" style="translate: none; rotate: none; scale: none; opacity: 1; transform-origin: 0px 0px 0px;" data-svg-origin="648 294.42857360839844" transform="matrix(1.0971,0,0,1.0971,-62.9208,-28.58901)"></path><path d="M80 372 Q80 360 72 356 Q60 352 60 364 Q60 376 80 390 Q100 376 100 364 Q100 352 88 356 Q80 360 80 372Z" fill="#e05070" stroke="#c03050" stroke-width="2.5" opacity="0" style="translate: none; rotate: none; scale: none; opacity: 1; transform-origin: 0px 0px 0px;" data-svg-origin="80 372.5" transform="matrix(1.1467,0,0,1.1467,-11.736,-54.64575)"></path><path d="M350 388 Q350 378 344 374 Q334 370 334 380 Q334 390 350 400 Q366 390 366 380 Q366 370 356 374 Q350 378 350 388Z" fill="#e87090" stroke="#c03050" stroke-width="2" opacity="0" style="translate: none; rotate: none; scale: none; opacity: 1; transform-origin: 0px 0px 0px;" data-svg-origin="350 386.42857360839844" transform="matrix(1.0613,0,0,1.0613,-21.455,-23.68807)"></path><path d="M610 375 Q610 363 602 359 Q590 355 590 367 Q590 379 610 393 Q630 379 630 367 Q630 355 618 359 Q610 363 610 375Z" fill="#e05070" stroke="#c03050" stroke-width="2.5" opacity="0" style="translate: none; rotate: none; scale: none; opacity: 1; transform-origin: 0px 0px 0px;" data-svg-origin="610 375.5" transform="matrix(1,0,0,1,0,0)"></path><path d="M118 18 Q118 11 113 8 Q106 5 106 12 Q106 19 118 27 Q130 19 130 12 Q130 5 123 8 Q118 11 118 18Z" fill="#e05070" stroke="#c03050" stroke-width="1.8" opacity="0" style="translate: none; rotate: none; scale: none; opacity: 1; transform-origin: 0px 0px 0px;" data-svg-origin="118 17.050000190734863" transform="matrix(1.0494,0,0,1.0494,-5.8292,-0.84227)"></path></svg>